<?xml version="1.0" encoding="UTF-8"?>
<!DOCTYPE svg PUBLIC "-//W3C//DTD SVG 1.1//EN" "http://www.w3.org/Graphics/SVG/1.1/DTD/svg11.dtd">
<!-- Creator: CorelDRAW X7 -->
<svg xmlns="http://www.w3.org/2000/svg" xml:space="preserve" width="338px" height="600px" version="1.1" style="shape-rendering:geometricPrecision; text-rendering:geometricPrecision; image-rendering:optimizeQuality; fill-rule:evenodd; clip-rule:evenodd"
viewBox="0 0 3462 6145"
 xmlns:xlink="http://www.w3.org/1999/xlink">
 <defs>
  <style type="text/css">
   <![CDATA[
    .str1 {stroke:white;stroke-width:16.2279}
    .str0 {stroke:#B3B3B3;stroke-width:10.8181}
    .fil11 {fill:none}
    .fil12 {fill:#999999}
    .fil9 {fill:#B3B3B3}
    .fil10 {fill:white}
    .fil0 {fill:white}
    .fil1 {fill:gray;fill-rule:nonzero}
    .fil8 {fill:#B3B3B3;fill-rule:nonzero}
    .fil2 {fill:#B3B3B3;fill-rule:nonzero}
    .fil7 {fill:#CCCCCC;fill-rule:nonzero}
    .fil6 {fill:#E2E2E2;fill-rule:nonzero}
    .fil5 {fill:#E6E6E6;fill-rule:nonzero}
    .fil3 {fill:#F2F2F2;fill-rule:nonzero}
    .fil4 {fill:white;fill-rule:nonzero}
   ]]>
  </style>
 </defs>
 <g id="Layer_x0020_1">
  <metadata id="CorelCorpID_0Corel-Layer"/>
  <rect class="fil0" width="3462" height="6145"/>
  <g id="_2320276815872">
   <g>
    <g>
     <g>
      <polygon class="fil1" points="3460,6145 2,6145 2,3679 3460,3679 "/>
     </g>
    </g>
   </g>
  </g>
  <g id="_2320276816992">
   <g>
    <path class="fil2" d="M364 4186c0,29 -23,53 -52,53l-169 0c-28,0 -52,-24 -52,-53l0 -304c0,-29 24,-53 52,-53l169 0c29,0 52,24 52,53l0 304z"/>
    <path class="fil2" d="M701 4186c0,29 -24,53 -53,53l-168 0c-29,0 -53,-24 -53,-53l0 -304c0,-30 24,-53 53,-53l168 0c29,0 53,23 53,53l0 304z"/>
    <path class="fil2" d="M1037 4186c0,29 -23,53 -52,53l-169 0c-29,0 -52,-24 -52,-53l0 -304c0,-30 23,-53 52,-53l169 0c29,0 52,23 52,53l0 304z"/>
    <path class="fil2" d="M1368 4186c0,29 -23,53 -52,53l-168 0c-29,0 -53,-24 -53,-53l0 -304c0,-29 24,-53 53,-53l168 0c29,0 52,24 52,53l0 304z"/>
    <path class="fil2" d="M1705 4186c0,29 -24,53 -53,53l-168 0c-29,0 -52,-24 -52,-53l0 -304c0,-30 23,-53 52,-53l168 0c29,0 53,23 53,53l0 304z"/>
    <path class="fil2" d="M2041 4186c0,29 -23,53 -52,53l-168 0c-29,0 -53,-24 -53,-53l0 -304c0,-30 24,-53 53,-53l168 0c29,0 52,23 52,53l0 304z"/>
    <path class="fil2" d="M2378 4186c0,29 -24,53 -53,53l-168 0c-29,0 -53,-24 -53,-53l0 -304c0,-30 24,-53 53,-53l168 0c29,0 53,23 53,53l0 304z"/>
    <path class="fil2" d="M2709 4186c0,29 -23,53 -53,53l-168 0c-29,0 -52,-24 -52,-53l0 -304c0,-30 23,-53 52,-53l168 0c30,0 53,23 53,53l0 304z"/>
    <path class="fil2" d="M3046 4186c0,29 -24,53 -53,53l-168 0c-29,0 -53,-24 -53,-53l0 -304c0,-30 24,-53 53,-53l168 0c29,0 53,23 53,53l0 304z"/>
    <path class="fil2" d="M3382 4186c0,29 -24,53 -53,53l-168 0c-29,0 -52,-24 -52,-53l0 -304c0,-29 23,-53 52,-53l168 0c29,0 53,24 53,53l0 304z"/>
   </g>
   <g>
    <path class="fil2" d="M533 4754c0,29 -24,53 -53,53l-168 0c-29,0 -53,-24 -53,-53l0 -305c0,-29 24,-52 53,-52l168 0c29,0 53,23 53,52l0 305z"/>
    <path class="fil2" d="M869 4754c0,29 -24,53 -53,53l-168 0c-29,0 -52,-24 -52,-53l0 -305c0,-29 23,-52 52,-52l168 0c29,0 53,23 53,52l0 305z"/>
    <path class="fil2" d="M1205 4754c0,29 -23,53 -52,53l-168 0c-29,0 -53,-24 -53,-53l0 -305c0,-29 24,-52 53,-52l168 0c29,0 52,23 52,52l0 305z"/>
    <path class="fil2" d="M1537 4754c0,29 -24,53 -53,53l-168 0c-29,0 -53,-24 -53,-53l0 -305c0,-29 24,-52 53,-52l168 0c29,0 53,23 53,52l0 305z"/>
    <path class="fil2" d="M1873 4754c0,29 -23,53 -52,53l-169 0c-29,0 -52,-24 -52,-53l0 -305c0,-29 23,-52 52,-52l169 0c29,0 52,23 52,52l0 305z"/>
    <path class="fil2" d="M2210 4754c0,29 -24,53 -53,53l-168 0c-29,0 -53,-24 -53,-53l0 -305c0,-29 24,-52 53,-52l168 0c29,0 53,23 53,52l0 305z"/>
    <path class="fil2" d="M2546 4754c0,29 -23,53 -53,53l-168 0c-29,0 -52,-24 -52,-53l0 -305c0,-29 23,-52 52,-52l168 0c30,0 53,23 53,52l0 305z"/>
    <path class="fil2" d="M2877 4754c0,29 -23,53 -52,53l-169 0c-29,0 -52,-24 -52,-53l0 -305c0,-29 23,-52 52,-52l169 0c29,0 52,23 52,52l0 305z"/>
    <path class="fil2" d="M3214 4754c0,29 -24,53 -53,53l-168 0c-29,0 -53,-24 -53,-53l0 -305c0,-29 24,-52 53,-52l168 0c29,0 53,23 53,52l0 305z"/>
   </g>
   <g>
    <path class="fil2" d="M869 5317c0,29 -24,52 -53,52l-168 0c-29,0 -52,-23 -52,-52l0 -305c0,-29 23,-53 52,-53l168 0c29,0 53,24 53,53l0 305z"/>
    <path class="fil2" d="M448 5317c0,29 -23,52 -52,52l-247 0c-29,0 -53,-23 -53,-52l0 -305c0,-29 24,-53 53,-53l247 0c29,0 52,24 52,53l0 305z"/>
    <path class="fil2" d="M3382 5317c0,29 -24,52 -53,52l-247 0c-29,0 -52,-23 -52,-52l0 -305c0,-29 23,-53 52,-53l247 0c29,0 53,24 53,53l0 305z"/>
    <path class="fil2" d="M1205 5317c0,29 -23,52 -52,52l-168 0c-29,0 -53,-23 -53,-52l0 -305c0,-29 24,-53 53,-53l168 0c29,0 52,24 52,53l0 305z"/>
    <path class="fil2" d="M1537 5317c0,29 -24,52 -53,52l-168 0c-29,0 -53,-23 -53,-52l0 -305c0,-29 24,-53 53,-53l168 0c29,0 53,24 53,53l0 305z"/>
    <path class="fil2" d="M1873 5317c0,29 -23,52 -52,52l-169 0c-29,0 -52,-23 -52,-52l0 -305c0,-29 23,-53 52,-53l169 0c29,0 52,24 52,53l0 305z"/>
    <path class="fil2" d="M2210 5317c0,29 -24,52 -53,52l-168 0c-29,0 -53,-23 -53,-52l0 -305c0,-29 24,-53 53,-53l168 0c29,0 53,24 53,53l0 305z"/>
    <path class="fil2" d="M2546 5317c0,29 -23,52 -53,52l-168 0c-29,0 -52,-23 -52,-52l0 -305c0,-29 23,-53 52,-53l168 0c30,0 53,24 53,53l0 305z"/>
    <path class="fil2" d="M2877 5317c0,29 -23,52 -52,52l-169 0c-29,0 -52,-23 -52,-52l0 -305c0,-29 23,-53 52,-53l169 0c29,0 52,24 52,53l0 305z"/>
   </g>
   <g>
    <path class="fil2" d="M1106 5869c0,29 -24,52 -53,52l-904 0c-29,0 -53,-23 -53,-52l0 -305c0,-29 24,-53 53,-53l904 0c29,0 53,24 53,53l0 305z"/>
   </g>
   <g>
    <path class="fil2" d="M3382 5869c0,29 -24,52 -53,52l-904 0c-29,0 -52,-23 -52,-52l0 -305c0,-29 23,-53 52,-53l904 0c29,0 53,24 53,53l0 305z"/>
   </g>
   <g>
    <path class="fil2" d="M2320 5869c0,29 -24,52 -53,52l-1062 0c-29,0 -52,-23 -52,-52l0 -305c0,-29 23,-53 52,-53l1062 0c29,0 53,24 53,53l0 305z"/>
   </g>
  </g>
  <polygon class="fil3" points="3462,3081 0,3081 0,3676 3462,3676 "/>
  <path class="fil2" d="M370 3381c0,75 -61,136 -136,136 -74,0 -135,-61 -135,-136 0,-74 61,-135 135,-135 75,0 136,61 136,135z"/>
  <path class="fil4 str0" d="M514 3593c-27,0 -49,-22 -49,-49l0 -324c0,-27 22,-49 49,-49l2164 0c27,0 48,22 48,49l0 324c0,27 -21,49 -48,49l-2164 0z"/>
  <path class="fil5" d="M2380 721l-1298 0c-120,0 -216,97 -216,216 0,120 96,216 216,216l1298 0c120,0 217,-96 217,-216 0,-119 -97,-216 -217,-216z"/>
  <path class="fil6" d="M536 1435l1736 0c119,0 216,97 216,216 0,120 -97,216 -216,216l-1736 0c-120,0 -217,-96 -217,-216 0,-119 97,-216 217,-216z"/>
  <path class="fil5" d="M3018 2149l-1947 0c-119,0 -216,97 -216,216 0,120 97,217 216,217l1947 0c120,0 217,-97 217,-217 0,-119 -97,-216 -217,-216z"/>
  <g id="_2320276827616">
   <path class="fil7" d="M509 895c0,46 -38,84 -84,84 -47,0 -85,-38 -85,-84 0,-47 38,-85 85,-85 46,0 84,38 84,85zm106 238c52,-49 85,-119 85,-196 0,-149 -121,-270 -271,-270 -149,0 -270,121 -270,270 0,75 31,143 81,192 35,-66 105,-112 186,-112 83,0 154,47 189,116z"/>
   <path class="fil8" d="M425 989c-59,0 -107,-48 -107,-107 0,-58 48,-106 107,-106 58,0 106,48 106,106 0,59 -48,107 -106,107z"/>
   <path class="fil8" d="M240 1129c35,-67 105,-112 186,-112 83,0 154,47 189,116 -49,46 -114,74 -186,74 -74,0 -141,-29 -189,-78z"/>
  </g>
  <g id="_2320276830080">
   <path class="fil7" d="M3055 1609c0,46 -38,84 -85,84 -46,0 -84,-38 -84,-84 0,-47 38,-85 84,-85 47,0 85,38 85,85zm106 238c52,-49 85,-118 85,-196 0,-149 -121,-270 -271,-270 -149,0 -270,121 -270,270 0,75 31,144 80,193 36,-67 106,-113 187,-113 83,0 154,47 189,116z"/>
   <path class="fil8" d="M2970 1703c-58,0 -106,-48 -106,-107 0,-58 48,-106 106,-106 59,0 107,48 107,106 0,59 -48,107 -107,107z"/>
   <path class="fil8" d="M2785 1844c36,-67 106,-113 187,-113 83,0 154,47 189,116 -49,46 -114,74 -186,74 -74,0 -141,-29 -190,-77z"/>
  </g>
  <g id="_2320276828672">
   <path class="fil7" d="M509 2323c0,47 -38,84 -84,84 -47,0 -85,-37 -85,-84 0,-47 38,-84 85,-84 46,0 84,37 84,84zm106 239c52,-50 85,-119 85,-197 0,-149 -121,-270 -271,-270 -149,0 -270,121 -270,270 0,76 31,144 81,193 35,-67 105,-113 186,-113 83,0 154,47 189,117z"/>
   <path class="fil8" d="M425 2417c-59,0 -107,-48 -107,-107 0,-58 48,-106 107,-106 58,0 106,48 106,106 0,59 -48,107 -106,107z"/>
   <path class="fil8" d="M240 2558c35,-67 105,-113 186,-113 83,0 154,47 189,116 -49,46 -114,75 -186,75 -74,0 -141,-30 -189,-78z"/>
  </g>
  <g id="_2320276832032">
   <rect class="fil9" x="1020" y="826" width="1400.28" height="90.1802"/>
   <rect class="fil9" x="1020" y="958" width="807.938" height="90.1802"/>
  </g>
  <rect class="fil9" x="517" y="1540" width="1752.01" height="90.1802"/>
  <rect class="fil9" x="517" y="1672" width="1400.4" height="90.1802"/>
  <rect class="fil9" x="1050" y="2254" width="1935.93" height="90.1802"/>
  <rect class="fil9" x="1050" y="2386" width="1117" height="90.1802"/>
  <polygon class="fil2" points="3462,476 0,476 0,0 3462,0 "/>
  <rect class="fil10" x="1042" y="167" width="1377" height="141"/>
  <polyline class="fil11 str1" points="289,165 213,238 289,311 "/>
  <rect class="fil9" x="606" y="3337" width="755.279" height="90.1802"/>
  <rect class="fil12" x="1388" y="3286" width="10.1403" height="191.349"/>
  <rect class="fil9" x="2915" y="3257" width="385" height="224"/>
 </g>
</svg>
