<?xml version="1.0" encoding="UTF-8"?>
<!DOCTYPE svg PUBLIC "-//W3C//DTD SVG 1.1//EN" "http://www.w3.org/Graphics/SVG/1.1/DTD/svg11.dtd">
<!-- Creator: CorelDRAW X7 -->
<svg xmlns="http://www.w3.org/2000/svg" xml:space="preserve" width="338px" height="600px" version="1.1" style="shape-rendering:geometricPrecision; text-rendering:geometricPrecision; image-rendering:optimizeQuality; fill-rule:evenodd; clip-rule:evenodd"
viewBox="0 0 2728 4843"
 xmlns:xlink="http://www.w3.org/1999/xlink">
 <defs>
  <style type="text/css">
   <![CDATA[
    .str0 {stroke:#CCCCCC;stroke-width:12.7892}
    .str1 {stroke:#CCCCCC;stroke-width:10.6575}
    .str2 {stroke:#CCCCCC;stroke-width:10.6575;stroke-linejoin:round}
    .fil10 {fill:none}
    .fil5 {fill:#4D4D4D}
    .fil6 {fill:#B3B3B3}
    .fil7 {fill:#CCCCCC}
    .fil2 {fill:white}
    .fil0 {fill:white}
    .fil4 {fill:#B3B3B3;fill-rule:nonzero}
    .fil1 {fill:#B3B3B3;fill-rule:nonzero}
    .fil3 {fill:#CCCCCC;fill-rule:nonzero}
    .fil8 {fill:white;fill-rule:nonzero}
    .fil9 {fill:white;fill-rule:nonzero}
   ]]>
  </style>
 </defs>
 <g id="Layer_x0020_1">
  <metadata id="CorelCorpID_0Corel-Layer"/>
  <rect class="fil0" width="2728" height="4843"/>
  <polygon class="fil1" points="2728,375 0,375 0,0 2728,0 "/>
  <rect class="fil2" x="821" y="132" width="1086" height="111"/>
  <g id="_2320659253360">
   <path class="fil3" d="M513 764c0,39 -32,70 -71,70 -38,0 -70,-31 -70,-70 0,-39 32,-71 70,-71 39,0 71,32 71,71zm88 199c44,-41 71,-99 71,-164 0,-125 -101,-226 -226,-226 -124,0 -225,101 -225,226 0,63 25,120 67,161 29,-56 88,-95 156,-95 69,0 128,40 157,98z"/>
   <path class="fil4" d="M442 842c-49,0 -88,-40 -88,-89 0,-49 39,-89 88,-89 49,0 89,40 89,89 0,49 -40,89 -89,89z"/>
   <path class="fil4" d="M288 960c29,-56 88,-95 156,-95 69,0 128,40 157,98 -40,38 -95,62 -155,62 -61,0 -117,-25 -158,-65z"/>
  </g>
  <rect class="fil5" x="171" y="1165" width="1194" height="100"/>
  <rect class="fil6" x="171" y="1319" width="1636.58" height="71.0712"/>
  <rect class="fil6" x="171" y="1431" width="1735.13" height="71.0712"/>
  <rect class="fil6" x="171" y="1544" width="1622.15" height="71.0712"/>
  <rect class="fil7" x="833" y="850" width="1724" height="164" rx="24" ry="14"/>
  <rect class="fil0" x="1333" y="902" width="724.846" height="61.3343"/>
  <rect class="fil7" x="1481" y="611" width="428" height="146"/>
  <rect class="fil7" x="898" y="611" width="428" height="146"/>
  <rect class="fil7" x="2064" y="611" width="428" height="146"/>
  <g id="_2320659254768">
   <polygon class="fil8" points="992,2428 992,1866 1736,1866 1736,2428 "/>
   <polygon class="fil9 str0" points="1737,1774 1737,1774 991,1774 991,2520 1737,2520 "/>
   <g>
    <path class="fil10 str1" d="M1262 2036l204 0c15,0 27,13 27,28l0 167c0,15 -12,27 -27,27l-204 0c-15,0 -27,-12 -27,-27l0 -167c0,-15 12,-28 27,-28z"/>
    <polyline class="fil10 str2" points="1236,2235 1307,2162 1403,2258 "/>
    <polyline class="fil10 str2" points="1333,2187 1406,2110 1493,2198 "/>
    <circle class="fil10 str1" cx="1337" cy="2085" r="29"/>
   </g>
   <polygon class="fil8" points="172,2428 172,1866 916,1866 916,2428 "/>
   <polygon class="fil9 str0" points="917,1774 917,1774 171,1774 171,2520 917,2520 "/>
   <g>
    <path class="fil10 str1" d="M442 2036l204 0c15,0 27,13 27,28l0 167c0,15 -12,27 -27,27l-204 0c-15,0 -27,-12 -27,-27l0 -167c0,-15 12,-28 27,-28z"/>
    <polyline class="fil10 str2" points="416,2235 487,2162 583,2258 "/>
    <polyline class="fil10 str2" points="513,2187 586,2110 673,2198 "/>
    <circle class="fil10 str1" cx="517" cy="2085" r="29"/>
   </g>
   <polygon class="fil8" points="1813,2428 1813,1866 2556,1866 2556,2428 "/>
   <polygon class="fil9 str0" points="2558,1774 2558,1774 1811,1774 1811,2520 2558,2520 "/>
   <g>
    <path class="fil10 str1" d="M2083 2036l203 0c15,0 27,13 27,28l0 167c0,15 -12,27 -27,27l-203 0c-15,0 -28,-12 -28,-27l0 -167c0,-15 13,-28 28,-28z"/>
    <polyline class="fil10 str2" points="2057,2235 2127,2162 2224,2258 "/>
    <polyline class="fil10 str2" points="2154,2187 2226,2110 2314,2198 "/>
    <circle class="fil10 str1" cx="2157" cy="2085" r="29"/>
   </g>
  </g>
  <g id="_2320659261296">
   <polygon class="fil8" points="992,3252 992,2690 1736,2690 1736,3252 "/>
   <polygon class="fil9 str0" points="1737,2598 1737,2598 991,2598 991,3344 1737,3344 "/>
   <g>
    <path class="fil10 str1" d="M1262 2860l204 0c15,0 27,12 27,27l0 168c0,15 -12,27 -27,27l-204 0c-15,0 -27,-12 -27,-27l0 -168c0,-15 12,-27 27,-27z"/>
    <polyline class="fil10 str2" points="1236,3059 1307,2986 1403,3082 "/>
    <polyline class="fil10 str2" points="1333,3011 1406,2933 1493,3022 "/>
    <circle class="fil10 str1" cx="1337" cy="2909" r="29"/>
   </g>
   <polygon class="fil8" points="172,3252 172,2690 916,2690 916,3252 "/>
   <polygon class="fil9 str0" points="917,2598 917,2598 171,2598 171,3344 917,3344 "/>
   <g>
    <path class="fil10 str1" d="M442 2860l204 0c15,0 27,12 27,27l0 168c0,15 -12,27 -27,27l-204 0c-15,0 -27,-12 -27,-27l0 -168c0,-15 12,-27 27,-27z"/>
    <polyline class="fil10 str2" points="416,3059 487,2986 583,3082 "/>
    <polyline class="fil10 str2" points="513,3011 586,2933 673,3022 "/>
    <circle class="fil10 str1" cx="517" cy="2909" r="29"/>
   </g>
   <polygon class="fil8" points="1813,3252 1813,2690 2556,2690 2556,3252 "/>
   <polygon class="fil9 str0" points="2558,2598 2558,2598 1811,2598 1811,3344 2558,3344 "/>
   <g>
    <path class="fil10 str1" d="M2083 2860l203 0c15,0 27,12 27,27l0 168c0,15 -12,27 -27,27l-203 0c-15,0 -28,-12 -28,-27l0 -168c0,-15 13,-27 28,-27z"/>
    <polyline class="fil10 str2" points="2057,3059 2127,2986 2224,3082 "/>
    <polyline class="fil10 str2" points="2154,3011 2226,2933 2314,3022 "/>
    <circle class="fil10 str1" cx="2157" cy="2909" r="29"/>
   </g>
  </g>
  <g id="_2320659267664">
   <polygon class="fil8" points="992,4073 992,3511 1736,3511 1736,4073 "/>
   <polygon class="fil9 str0" points="1737,3419 1737,3419 991,3419 991,4165 1737,4165 "/>
   <g>
    <path class="fil10 str1" d="M1262 3681l204 0c15,0 27,12 27,27l0 167c0,15 -12,28 -27,28l-204 0c-15,0 -27,-13 -27,-28l0 -167c0,-15 12,-27 27,-27z"/>
    <polyline class="fil10 str2" points="1236,3879 1307,3807 1403,3903 "/>
    <polyline class="fil10 str2" points="1333,3832 1406,3754 1493,3842 "/>
    <circle class="fil10 str1" cx="1337" cy="3730" r="29"/>
   </g>
   <polygon class="fil8" points="172,4073 172,3511 916,3511 916,4073 "/>
   <polygon class="fil9 str0" points="917,3419 917,3419 171,3419 171,4165 917,4165 "/>
   <g>
    <path class="fil10 str1" d="M442 3681l204 0c15,0 27,12 27,27l0 167c0,15 -12,28 -27,28l-204 0c-15,0 -27,-13 -27,-28l0 -167c0,-15 12,-27 27,-27z"/>
    <polyline class="fil10 str2" points="416,3879 487,3807 583,3903 "/>
    <polyline class="fil10 str2" points="513,3832 586,3754 673,3842 "/>
    <circle class="fil10 str1" cx="517" cy="3730" r="29"/>
   </g>
   <polygon class="fil8" points="1813,4073 1813,3511 2556,3511 2556,4073 "/>
   <polygon class="fil9 str0" points="2558,3419 2558,3419 1811,3419 1811,4165 2558,4165 "/>
   <g>
    <path class="fil10 str1" d="M2083 3681l203 0c15,0 27,12 27,27l0 167c0,15 -12,28 -27,28l-203 0c-15,0 -28,-13 -28,-28l0 -167c0,-15 13,-27 28,-27z"/>
    <polyline class="fil10 str2" points="2057,3879 2127,3807 2224,3903 "/>
    <polyline class="fil10 str2" points="2154,3832 2226,3754 2314,3842 "/>
    <circle class="fil10 str1" cx="2157" cy="3730" r="29"/>
   </g>
  </g>
 </g>
</svg>
