<?xml version="1.0" encoding="UTF-8"?>
<!DOCTYPE svg PUBLIC "-//W3C//DTD SVG 1.1//EN" "http://www.w3.org/Graphics/SVG/1.1/DTD/svg11.dtd">
<!-- Creator: CorelDRAW X7 -->
<svg xmlns="http://www.w3.org/2000/svg" xml:space="preserve" width="338px" height="600px" version="1.1" style="shape-rendering:geometricPrecision; text-rendering:geometricPrecision; image-rendering:optimizeQuality; fill-rule:evenodd; clip-rule:evenodd"
viewBox="0 0 35411 62854"
 xmlns:xlink="http://www.w3.org/1999/xlink">
 <defs>
  <style type="text/css">
   <![CDATA[
    .str0 {stroke:#7C7E87;stroke-width:221.314;stroke-linecap:round;stroke-linejoin:round}
    .fil6 {fill:none;fill-rule:nonzero}
    .fil7 {fill:#4D4D4D}
    .fil8 {fill:gray}
    .fil9 {fill:white}
    .fil0 {fill:white}
    .fil1 {fill:#B3B3B3;fill-rule:nonzero}
    .fil3 {fill:#B3B3BA;fill-rule:nonzero}
    .fil5 {fill:#DBDAE2;fill-rule:nonzero}
    .fil2 {fill:#F2F2F2;fill-rule:nonzero}
    .fil4 {fill:white;fill-rule:nonzero}
   ]]>
  </style>
 </defs>
 <g id="Layer_x0020_1">
  <metadata id="CorelCorpID_0Corel-Layer"/>
  <g id="_2320283804816">
   <rect class="fil0" width="35411" height="62854"/>
   <polygon class="fil1" points="35411,4869 0,4869 0,0 35411,0 "/>
   <g>
    <polygon class="fil2" points="35411,13054 0,13054 0,4869 35411,4869 "/>
    <polygon class="fil3" points="35411,13169 0,13169 0,13054 35411,13054 "/>
    <g>
     <path class="fil4" d="M1508 11672c-92,0 -166,-74 -166,-166l0 -5090c0,-91 74,-166 166,-166l5090 0c92,0 166,75 166,166l0 5090c0,92 -74,166 -166,166l-5090 0z"/>
     <path class="fil5" d="M6598 6306c61,0 111,49 111,110l0 5090c0,61 -50,111 -111,111l-5090 0c-61,0 -111,-50 -111,-111l0 -5090c0,-61 50,-110 111,-110l5090 0zm0 -111l0 0 -5090 0c-122,0 -222,99 -222,221l0 5090c0,122 100,222 222,222l5090 0c122,0 221,-100 221,-222l0 -5090c0,-122 -99,-221 -221,-221z"/>
    </g>
    <polyline class="fil6 str0" points="33239,7993 34124,8934 33239,9874 "/>
    <rect class="fil7" x="8099" y="7423" width="17072" height="1289"/>
    <rect class="fil8" x="8099" y="9531" width="3917" height="874"/>
   </g>
   <rect class="fil9" x="14097" y="1712" width="7218" height="1445"/>
   <g>
    <polygon class="fil2" points="35411,21354 0,21354 0,13169 35411,13169 "/>
    <polygon class="fil3" points="35411,21469 0,21469 0,21354 35411,21354 "/>
    <g>
     <path class="fil4" d="M1508 19972c-92,0 -166,-74 -166,-166l0 -5090c0,-91 74,-166 166,-166l5090 0c92,0 166,75 166,166l0 5090c0,92 -74,166 -166,166l-5090 0z"/>
     <path class="fil5" d="M6598 14606c61,0 111,49 111,110l0 5090c0,61 -50,111 -111,111l-5090 0c-61,0 -111,-50 -111,-111l0 -5090c0,-61 50,-110 111,-110l5090 0zm0 -111l0 0 -5090 0c-122,0 -222,99 -222,221l0 5090c0,122 100,222 222,222l5090 0c122,0 221,-100 221,-222l0 -5090c0,-122 -99,-221 -221,-221z"/>
    </g>
    <polyline class="fil6 str0" points="33239,16293 34124,17234 33239,18174 "/>
    <rect class="fil7" x="8099" y="15723" width="17072" height="1289"/>
    <rect class="fil8" x="8099" y="17831" width="3917" height="874"/>
   </g>
   <g>
    <polygon class="fil2" points="35411,29654 0,29654 0,21469 35411,21469 "/>
    <polygon class="fil3" points="35411,29769 0,29769 0,29654 35411,29654 "/>
    <g>
     <path class="fil4" d="M1508 28272c-92,0 -166,-74 -166,-166l0 -5090c0,-91 74,-166 166,-166l5090 0c92,0 166,75 166,166l0 5090c0,92 -74,166 -166,166l-5090 0z"/>
     <path class="fil5" d="M6598 22906c61,0 111,49 111,110l0 5090c0,61 -50,111 -111,111l-5090 0c-61,0 -111,-50 -111,-111l0 -5090c0,-61 50,-110 111,-110l5090 0zm0 -111l0 0 -5090 0c-122,0 -222,99 -222,221l0 5090c0,122 100,222 222,222l5090 0c122,0 221,-100 221,-222l0 -5090c0,-122 -99,-221 -221,-221z"/>
    </g>
    <polyline class="fil6 str0" points="33239,24593 34124,25534 33239,26474 "/>
    <rect class="fil7" x="8099" y="24023" width="17072" height="1289"/>
    <rect class="fil8" x="8099" y="26131" width="3917" height="874"/>
   </g>
   <g>
    <polygon class="fil2" points="35411,37954 0,37954 0,29769 35411,29769 "/>
    <polygon class="fil3" points="35411,38069 0,38069 0,37954 35411,37954 "/>
    <g>
     <path class="fil4" d="M1508 36572c-92,0 -166,-74 -166,-166l0 -5090c0,-91 74,-166 166,-166l5090 0c92,0 166,75 166,166l0 5090c0,92 -74,166 -166,166l-5090 0z"/>
     <path class="fil5" d="M6598 31206c61,0 111,49 111,110l0 5090c0,61 -50,111 -111,111l-5090 0c-61,0 -111,-50 -111,-111l0 -5090c0,-61 50,-110 111,-110l5090 0zm0 -111l0 0 -5090 0c-122,0 -222,99 -222,221l0 5090c0,122 100,222 222,222l5090 0c122,0 221,-100 221,-222l0 -5090c0,-122 -99,-221 -221,-221z"/>
    </g>
    <polyline class="fil6 str0" points="33239,32893 34124,33834 33239,34774 "/>
    <rect class="fil7" x="8099" y="32323" width="17072" height="1289"/>
    <rect class="fil8" x="8099" y="34431" width="3917" height="874"/>
   </g>
   <g>
    <polygon class="fil2" points="35411,46254 0,46254 0,38069 35411,38069 "/>
    <polygon class="fil3" points="35411,46369 0,46369 0,46254 35411,46254 "/>
    <g>
     <path class="fil4" d="M1508 44872c-92,0 -166,-74 -166,-166l0 -5090c0,-91 74,-166 166,-166l5090 0c92,0 166,75 166,166l0 5090c0,92 -74,166 -166,166l-5090 0z"/>
     <path class="fil5" d="M6598 39506c61,0 111,49 111,110l0 5090c0,61 -50,111 -111,111l-5090 0c-61,0 -111,-50 -111,-111l0 -5090c0,-61 50,-110 111,-110l5090 0zm0 -111l0 0 -5090 0c-122,0 -222,99 -222,221l0 5090c0,122 100,222 222,222l5090 0c122,0 221,-100 221,-222l0 -5090c0,-122 -99,-221 -221,-221z"/>
    </g>
    <polyline class="fil6 str0" points="33239,41193 34124,42134 33239,43074 "/>
    <rect class="fil7" x="8099" y="40623" width="17072" height="1289"/>
    <rect class="fil8" x="8099" y="42731" width="3917" height="874"/>
   </g>
   <g>
    <polygon class="fil2" points="35411,54554 0,54554 0,46369 35411,46369 "/>
    <polygon class="fil3" points="35411,54669 0,54669 0,54554 35411,54554 "/>
    <g>
     <path class="fil4" d="M1508 53172c-92,0 -166,-74 -166,-166l0 -5090c0,-91 74,-166 166,-166l5090 0c92,0 166,75 166,166l0 5090c0,92 -74,166 -166,166l-5090 0z"/>
     <path class="fil5" d="M6598 47806c61,0 111,49 111,110l0 5090c0,61 -50,111 -111,111l-5090 0c-61,0 -111,-50 -111,-111l0 -5090c0,-61 50,-110 111,-110l5090 0zm0 -111l0 0 -5090 0c-122,0 -222,99 -222,221l0 5090c0,122 100,222 222,222l5090 0c122,0 221,-100 221,-222l0 -5090c0,-122 -99,-221 -221,-221z"/>
    </g>
    <polyline class="fil6 str0" points="33239,49493 34124,50434 33239,51374 "/>
    <rect class="fil7" x="8099" y="48923" width="17072" height="1289"/>
    <rect class="fil8" x="8099" y="51031" width="3917" height="874"/>
   </g>
   <polygon class="fil2" points="35411,62854 0,62854 0,54669 35411,54669 "/>
   <g>
    <path class="fil4" d="M1508 61472c-92,0 -166,-74 -166,-166l0 -5090c0,-91 74,-166 166,-166l5090 0c92,0 166,75 166,166l0 5090c0,92 -74,166 -166,166l-5090 0z"/>
    <path class="fil5" d="M6598 56106c61,0 111,49 111,110l0 5090c0,61 -50,111 -111,111l-5090 0c-61,0 -111,-50 -111,-111l0 -5090c0,-61 50,-110 111,-110l5090 0zm0 -111l0 0 -5090 0c-122,0 -222,99 -222,221l0 5090c0,122 100,222 222,222l5090 0c122,0 221,-100 221,-222l0 -5090c0,-122 -99,-221 -221,-221z"/>
   </g>
   <polyline class="fil6 str0" points="33239,57793 34124,58734 33239,59674 "/>
   <rect class="fil7" x="8099" y="57223" width="17072" height="1289"/>
   <rect class="fil8" x="8099" y="59332" width="3917" height="874"/>
  </g>
 </g>
</svg>
