<?xml version="1.0" encoding="UTF-8"?>
<!DOCTYPE svg PUBLIC "-//W3C//DTD SVG 1.1//EN" "http://www.w3.org/Graphics/SVG/1.1/DTD/svg11.dtd">
<!-- Creator: CorelDRAW X7 -->
<svg xmlns="http://www.w3.org/2000/svg" xml:space="preserve" width="338px" height="600px" version="1.1" style="shape-rendering:geometricPrecision; text-rendering:geometricPrecision; image-rendering:optimizeQuality; fill-rule:evenodd; clip-rule:evenodd"
viewBox="0 0 5142 9128"
 xmlns:xlink="http://www.w3.org/1999/xlink">
 <defs>
  <style type="text/css">
   <![CDATA[
    .fil7 {fill:#4D4D4D}
    .fil1 {fill:#999999}
    .fil6 {fill:#E6E6E6}
    .fil0 {fill:white}
    .fil5 {fill:#666666;fill-rule:nonzero}
    .fil2 {fill:#999999;fill-rule:nonzero}
    .fil4 {fill:#B3B3B3;fill-rule:nonzero}
    .fil3 {fill:#CCCCCC;fill-rule:nonzero}
   ]]>
  </style>
 </defs>
 <g id="Layer_x0020_1">
  <metadata id="CorelCorpID_0Corel-Layer"/>
  <g id="_2320606483504">
   <rect class="fil0" width="5142" height="9128"/>
   <rect class="fil1" x="943" y="3084" width="3256" height="210"/>
   <rect class="fil1" x="1371" y="3861" width="2180" height="210"/>
   <rect class="fil1" x="1657" y="5371" width="1746" height="210"/>
   <g>
    <g>
     <g>
      <g>
       <path class="fil2" d="M4467 3634c18,0 32,15 32,33l0 578c0,18 -14,32 -32,32l-3792 0c-18,0 -32,-14 -32,-32l0 -578c0,-18 14,-33 32,-33l3792 0zm0 -16l0 0 -3792 0c-27,0 -48,22 -48,49l0 578c0,27 21,48 48,48l3792 0c27,0 49,-21 49,-48l0 -578c0,-27 -22,-49 -49,-49z"/>
      </g>
     </g>
    </g>
   </g>
   <g>
    <g>
     <g>
      <g>
       <path class="fil2" d="M4467 4390c18,0 32,14 32,32l0 578c0,18 -14,32 -32,32l-3792 0c-18,0 -32,-14 -32,-32l0 -578c0,-18 14,-32 32,-32l3792 0zm0 -16l0 0 -3792 0c-27,0 -48,21 -48,48l0 578c0,27 21,49 48,49l3792 0c27,0 49,-22 49,-49l0 -578c0,-27 -22,-48 -49,-48z"/>
      </g>
     </g>
    </g>
   </g>
   <path class="fil3" d="M3535 1672c0,533 -431,965 -964,965 -532,0 -964,-432 -964,-965 0,-532 432,-964 964,-964 533,0 964,432 964,964z"/>
   <path class="fil1" d="M1371 4711c0,-6 1,-12 4,-17 2,-6 5,-11 9,-15 4,-4 9,-7 14,-9 6,-3 12,-4 18,-4 6,0 12,1 17,4 6,2 10,5 14,9 4,4 8,9 10,15 2,5 4,11 4,17 0,6 -2,12 -4,18 -2,5 -6,10 -10,14 -4,4 -8,7 -14,9 -5,3 -11,4 -17,4 -6,0 -12,-1 -18,-4 -5,-2 -10,-5 -14,-9 -4,-4 -7,-9 -9,-14 -3,-6 -4,-12 -4,-18zm140 0c0,-6 1,-12 3,-17 3,-6 6,-11 10,-15 4,-4 9,-7 14,-9 6,-3 11,-4 17,-4 7,0 12,1 18,4 5,2 10,5 14,9 4,4 7,9 10,15 2,5 3,11 3,17 0,6 -1,12 -3,18 -3,5 -6,10 -10,14 -4,4 -9,7 -14,9 -6,3 -11,4 -18,4 -6,0 -11,-1 -17,-4 -5,-2 -10,-5 -14,-9 -4,-4 -7,-9 -10,-14 -2,-6 -3,-12 -3,-18zm140 0c0,-6 1,-12 3,-17 3,-6 6,-11 10,-15 4,-4 9,-7 14,-9 5,-3 11,-4 17,-4 6,0 12,1 18,4 5,2 10,5 14,9 4,4 7,9 10,15 2,5 3,11 3,17 0,6 -1,12 -3,18 -3,5 -6,10 -10,14 -4,4 -9,7 -14,9 -6,3 -12,4 -18,4 -6,0 -12,-1 -17,-4 -5,-2 -10,-5 -14,-9 -4,-4 -7,-9 -10,-14 -2,-6 -3,-12 -3,-18zm139 0c0,-6 2,-12 4,-17 2,-6 6,-11 10,-15 4,-4 8,-7 14,-9 5,-3 11,-4 17,-4 6,0 12,1 18,4 5,2 10,5 14,9 4,4 7,9 9,15 3,5 4,11 4,17 0,6 -1,12 -4,18 -2,5 -5,10 -9,14 -4,4 -9,7 -14,9 -6,3 -12,4 -18,4 -6,0 -12,-1 -17,-4 -6,-2 -10,-5 -14,-9 -4,-4 -8,-9 -10,-14 -2,-6 -4,-12 -4,-18zm140 0c0,-6 1,-12 4,-17 2,-6 5,-11 9,-15 4,-4 9,-7 15,-9 5,-3 11,-4 17,-4 6,0 12,1 17,4 6,2 11,5 15,9 4,4 7,9 9,15 3,5 4,11 4,17 0,6 -1,12 -4,18 -2,5 -5,10 -9,14 -4,4 -9,7 -15,9 -5,3 -11,4 -17,4 -6,0 -12,-1 -17,-4 -6,-2 -11,-5 -15,-9 -4,-4 -7,-9 -9,-14 -3,-6 -4,-12 -4,-18zm140 0c0,-6 1,-12 4,-17 2,-6 5,-11 9,-15 4,-4 9,-7 14,-9 6,-3 12,-4 18,-4 6,0 12,1 17,4 6,2 10,5 14,9 4,4 8,9 10,15 2,5 4,11 4,17 0,6 -2,12 -4,18 -2,5 -6,10 -10,14 -4,4 -8,7 -14,9 -5,3 -11,4 -17,4 -6,0 -12,-1 -18,-4 -5,-2 -10,-5 -14,-9 -4,-4 -7,-9 -9,-14 -3,-6 -4,-12 -4,-18zm140 0c0,-6 1,-12 3,-17 3,-6 6,-11 10,-15 4,-4 9,-7 14,-9 6,-3 11,-4 17,-4 7,0 12,1 18,4 5,2 10,5 14,9 4,4 8,9 10,15 2,5 3,11 3,17 0,6 -1,12 -3,18 -2,5 -6,10 -10,14 -4,4 -9,7 -14,9 -6,3 -11,4 -18,4 -6,0 -11,-1 -17,-4 -5,-2 -10,-5 -14,-9 -4,-4 -7,-9 -10,-14 -2,-6 -3,-12 -3,-18zm140 0c0,-6 1,-12 3,-17 3,-6 6,-11 10,-15 4,-4 9,-7 14,-9 5,-3 11,-4 17,-4 6,0 12,1 18,4 5,2 10,5 14,9 4,4 7,9 10,15 2,5 3,11 3,17 0,6 -1,12 -3,18 -3,5 -6,10 -10,14 -4,4 -9,7 -14,9 -6,3 -12,4 -18,4 -6,0 -12,-1 -17,-4 -5,-2 -10,-5 -14,-9 -4,-4 -7,-9 -10,-14 -2,-6 -3,-12 -3,-18zm139 0c0,-6 2,-12 4,-17 2,-6 6,-11 10,-15 4,-4 8,-7 14,-9 5,-3 11,-4 17,-4 6,0 12,1 18,4 5,2 10,5 14,9 4,4 7,9 9,15 3,5 4,11 4,17 0,6 -1,12 -4,18 -2,5 -5,10 -9,14 -4,4 -9,7 -14,9 -6,3 -12,4 -18,4 -6,0 -12,-1 -17,-4 -6,-2 -10,-5 -14,-9 -4,-4 -8,-9 -10,-14 -2,-6 -4,-12 -4,-18zm140 0c0,-6 1,-12 4,-17 2,-6 5,-11 9,-15 4,-4 9,-7 15,-9 5,-3 11,-4 17,-4 6,0 12,1 17,4 6,2 11,5 15,9 4,4 7,9 9,15 3,5 4,11 4,17 0,6 -1,12 -4,18 -2,5 -5,10 -9,14 -4,4 -9,7 -15,9 -5,3 -11,4 -17,4 -6,0 -12,-1 -17,-4 -6,-2 -11,-5 -15,-9 -4,-4 -7,-9 -9,-14 -3,-6 -4,-12 -4,-18z"/>
   <path class="fil2" d="M1208 3955c0,111 -90,201 -201,201 -111,0 -201,-90 -201,-201 0,-111 90,-201 201,-201 111,0 201,90 201,201z"/>
   <path class="fil2" d="M1208 4710c0,111 -90,201 -201,201 -111,0 -201,-90 -201,-201 0,-111 90,-201 201,-201 111,0 201,90 201,201z"/>
   <rect class="fil1" x="1657" y="8210" width="1746" height="210"/>
   <g>
    <path class="fil4" d="M4178 7523c0,18 -14,32 -32,32l-3150 0c-17,0 -32,-14 -32,-32l0 -578c0,-18 15,-32 32,-32l3150 0c18,0 32,14 32,32l0 578z"/>
   </g>
   <g>
    <path class="fil5" d="M4178 6559c0,18 -14,32 -32,32l-3150 0c-17,0 -32,-14 -32,-32l0 -578c0,-18 15,-33 32,-33l3150 0c18,0 32,15 32,33l0 578z"/>
   </g>
   <rect class="fil6" x="1976" y="6165" width="1191" height="210"/>
   <rect class="fil7" x="1413" y="7129" width="2316" height="210"/>
  </g>
 </g>
</svg>
