<?xml version="1.0" encoding="UTF-8"?>
<!DOCTYPE svg PUBLIC "-//W3C//DTD SVG 1.1//EN" "http://www.w3.org/Graphics/SVG/1.1/DTD/svg11.dtd">
<!-- Creator: CorelDRAW X7 -->
<svg xmlns="http://www.w3.org/2000/svg" xml:space="preserve" width="284px" height="601px" version="1.1" style="shape-rendering:geometricPrecision; text-rendering:geometricPrecision; image-rendering:optimizeQuality; fill-rule:evenodd; clip-rule:evenodd"
viewBox="0 0 1921 4062"
 xmlns:xlink="http://www.w3.org/1999/xlink">
 <defs>
  <style type="text/css">
   <![CDATA[
    .str1 {stroke:#3282F0;stroke-width:20.7581}
    .str0 {stroke:#3282F0;stroke-width:18.1632}
    .fil1 {fill:none}
    .fil0 {fill:#333333}
    .fil2 {fill:white}
   ]]>
  </style>
 </defs>
 <g id="Layer_x0020_1">
  <metadata id="CorelCorpID_0Corel-Layer"/>
  <path class="fil0 str0" d="M295 9c401,0 882,0 1331,0 157,0 286,129 286,286 0,1099 0,2180 0,3473 0,157 -129,285 -286,285l-1331 0c-157,0 -286,-128 -286,-285l0 -3473c0,-157 129,-286 286,-286z"/>
  <circle class="fil1 str1" cx="978" cy="3771" r="165"/>
  <rect class="fil1 str1" x="918" y="3711" width="121" height="121" rx="11" ry="11"/>
  <rect class="fil2" x="132" y="558" width="1658" height="2947"/>
  <path class="fil1 str0" d="M833 320l255 0c17,0 30,14 30,30l0 0c0,17 -13,30 -30,30l-255 0c-17,0 -30,-13 -30,-30l0 0c0,-16 13,-30 30,-30z"/>
  <path class="fil1 str0" d="M961 159c18,0 33,15 33,33 0,19 -15,34 -33,34 -19,0 -34,-15 -34,-34 0,-18 15,-33 34,-33z"/>
 </g>
</svg>
