<?xml version="1.0" encoding="UTF-8"?>
<!DOCTYPE svg PUBLIC "-//W3C//DTD SVG 1.1//EN" "http://www.w3.org/Graphics/SVG/1.1/DTD/svg11.dtd">
<!-- Creator: CorelDRAW X7 -->
<svg xmlns="http://www.w3.org/2000/svg" xml:space="preserve" width="284px" height="599px" version="1.1" style="shape-rendering:geometricPrecision; text-rendering:geometricPrecision; image-rendering:optimizeQuality; fill-rule:evenodd; clip-rule:evenodd"
viewBox="0 0 1754 3701"
 xmlns:xlink="http://www.w3.org/1999/xlink">
 <defs>
  <style type="text/css">
   <![CDATA[
    .str1 {stroke:#3282F0;stroke-width:18.8755}
    .str2 {stroke:#3282F0;stroke-width:16.5159}
    .str3 {stroke:#636A73;stroke-width:14.1563}
    .str0 {stroke:#3282F0;stroke-width:23.5934}
    .fil0 {fill:none}
    .fil2 {fill:#636A73}
    .fil1 {fill:white}
   ]]>
  </style>
 </defs>
 <g id="Layer_x0020_1">
  <metadata id="CorelCorpID_0Corel-Layer"/>
  <g id="_1957977912672">
   <path class="fil0 str0" d="M271 12c365,0 803,0 1212,0 142,0 259,117 259,259 0,1000 0,1983 0,3158 0,143 -117,260 -259,260l-1212 0c-142,0 -259,-117 -259,-260l0 -3158c0,-142 117,-259 259,-259z"/>
   <circle class="fil0 str1" cx="893" cy="3433" r="150"/>
   <rect class="fil0 str1" x="838" y="3378" width="110" height="110" rx="10" ry="10"/>
   <g>
    <polygon class="fil1" points="123,511 1631,511 1631,3190 123,3190 "/>
    <path id="1" class="fil2" d="M123 511l1508 0 0 2679 -1508 0 0 -2679zm1493 14l-1479 0 0 2651 1479 0 0 -2651z"/>
   </g>
   <path class="fil0 str2" d="M761 295l232 0c15,0 27,12 27,27l0 0c0,15 -12,27 -27,27l-232 0c-15,0 -27,-12 -27,-27l0 0c0,-15 12,-27 27,-27z"/>
   <path class="fil0 str2" d="M877 148c17,0 30,13 30,30 0,17 -13,31 -30,31 -17,0 -31,-14 -31,-31 0,-17 14,-30 31,-30z"/>
   <line class="fil0 str3" x1="131" y1="524" x2="1623" y2= "3177" />
   <line class="fil0 str3" x1="1623" y1="524" x2="131" y2= "3177" />
  </g>
 </g>
</svg>
