<?xml version="1.0" encoding="UTF-8"?>
<!DOCTYPE svg PUBLIC "-//W3C//DTD SVG 1.1//EN" "http://www.w3.org/Graphics/SVG/1.1/DTD/svg11.dtd">
<!-- Creator: CorelDRAW X7 -->
<svg xmlns="http://www.w3.org/2000/svg" xml:space="preserve" width="286px" height="600px" version="1.1" style="shape-rendering:geometricPrecision; text-rendering:geometricPrecision; image-rendering:optimizeQuality; fill-rule:evenodd; clip-rule:evenodd"
viewBox="0 0 1965 4122"
 xmlns:xlink="http://www.w3.org/1999/xlink">
 <defs>
  <style type="text/css">
   <![CDATA[
    .str1 {stroke:white;stroke-width:20.9307}
    .str0 {stroke:white;stroke-width:18.3142}
    .fil1 {fill:none}
    .fil0 {fill:#333333}
    .fil2 {fill:white}
   ]]>
  </style>
 </defs>
 <g id="Layer_x0020_1">
  <metadata id="CorelCorpID_0Corel-Layer"/>
  <path class="fil0 str0" d="M297 35l30 0 0 -16c0,-5 5,-10 10,-10l301 0c6,0 10,5 10,10l0 16 992 0c158,0 288,130 288,288l0 263 14 0c8,0 14,6 14,13l0 164c0,7 -6,13 -14,13l-14 0 0 155 14 0c8,0 14,6 14,14l0 164c0,7 -6,13 -14,13l-14 0 0 149 14 0c8,0 14,6 14,13l0 164c0,7 -6,13 -14,13l-14 0 0 2364c0,159 -130,288 -288,288l-1343 0c-158,0 -288,-129 -288,-288l0 -3502c0,-158 130,-288 288,-288z"/>
  <circle class="fil1 str1" cx="987" cy="3829" r="167"/>
  <rect class="fil1 str1" x="926" y="3768" width="122" height="122" rx="11" ry="11"/>
  <rect class="fil2" x="133" y="589" width="1671" height="2971"/>
  <path class="fil1 str0" d="M840 349l257 0c17,0 30,14 30,30l0 0c0,17 -13,31 -30,31l-257 0c-17,0 -30,-14 -30,-31l0 0c0,-16 13,-30 30,-30z"/>
  <path class="fil1 str0" d="M968 186c19,0 34,15 34,34 0,19 -15,34 -34,34 -18,0 -33,-15 -33,-34 0,-19 15,-34 33,-34z"/>
 </g>
</svg>
