<?xml version="1.0" encoding="UTF-8"?>
<!DOCTYPE svg PUBLIC "-//W3C//DTD SVG 1.1//EN" "http://www.w3.org/Graphics/SVG/1.1/DTD/svg11.dtd">
<!-- Creator: CorelDRAW X7 -->
<svg xmlns="http://www.w3.org/2000/svg" xml:space="preserve" width="285px" height="601px" version="1.1" style="shape-rendering:geometricPrecision; text-rendering:geometricPrecision; image-rendering:optimizeQuality; fill-rule:evenodd; clip-rule:evenodd"
viewBox="0 0 1358 2862"
 xmlns:xlink="http://www.w3.org/1999/xlink">
 <defs>
  <style type="text/css">
   <![CDATA[
    .str0 {stroke:white;stroke-width:14.5982}
    .str1 {stroke:white;stroke-width:12.7733}
    .fil1 {fill:none}
    .fil0 {fill:#3282F0}
    .fil2 {fill:white}
   ]]>
  </style>
 </defs>
 <g id="Layer_x0020_1">
  <metadata id="CorelCorpID_0Corel-Layer"/>
  <path class="fil0" d="M201 18l21 0 0 -11c0,-4 3,-7 7,-7l210 0c4,0 7,3 7,7l0 11 691 0c111,0 201,91 201,201l0 183 10 0c5,0 10,5 10,10l0 114c0,5 -5,9 -10,9l-10 0 0 108 10 0c5,0 10,4 10,9l0 115c0,5 -5,9 -10,9l-10 0 0 104 10 0c5,0 10,4 10,9l0 115c0,5 -5,9 -10,9l-10 0 0 1649c0,110 -90,200 -201,200l-936 0c-111,0 -201,-90 -201,-200l0 -2443c0,-110 90,-201 201,-201z"/>
  <circle class="fil1 str0" cx="682" cy="2664" r="116"/>
  <rect class="fil1 str0" x="639" y="2622" width="84.853" height="84.853" rx="8" ry="8"/>
  <rect class="fil2" x="86" y="404" width="1166" height="2072"/>
  <path class="fil1 str1" d="M579 237l180 0c11,0 21,10 21,21l0 0c0,12 -10,21 -21,21l-180 0c-11,0 -21,-9 -21,-21l0 0c0,-11 10,-21 21,-21z"/>
  <path class="fil1 str1" d="M669 124c13,0 24,10 24,23 0,13 -11,24 -24,24 -13,0 -23,-11 -23,-24 0,-13 10,-23 23,-23z"/>
 </g>
</svg>
