<?xml version="1.0" encoding="UTF-8"?>
<!DOCTYPE svg PUBLIC "-//W3C//DTD SVG 1.1//EN" "http://www.w3.org/Graphics/SVG/1.1/DTD/svg11.dtd">
<!-- Creator: CorelDRAW X7 -->
<svg xmlns="http://www.w3.org/2000/svg" xml:space="preserve" width="284px" height="601px" version="1.1" style="shape-rendering:geometricPrecision; text-rendering:geometricPrecision; image-rendering:optimizeQuality; fill-rule:evenodd; clip-rule:evenodd"
viewBox="0 0 1346 2845"
 xmlns:xlink="http://www.w3.org/1999/xlink">
 <defs>
  <style type="text/css">
   <![CDATA[
    .str1 {stroke:white;stroke-width:14.5407}
    .str0 {stroke:#3282F0;stroke-width:12.7229}
    .str2 {stroke:white;stroke-width:12.7229}
    .fil1 {fill:none}
    .fil0 {fill:#3282F0}
    .fil2 {fill:white}
   ]]>
  </style>
 </defs>
 <g id="Layer_x0020_1">
  <metadata id="CorelCorpID_0Corel-Layer"/>
  <g id="_2704939358528">
   <path class="fil0 str0" d="M206 6c281,0 618,0 933,0 110,0 200,90 200,200 0,770 0,1528 0,2433 0,110 -90,200 -200,200l-933 0c-110,0 -200,-90 -200,-200l0 -2433c0,-110 90,-200 200,-200z"/>
   <circle class="fil1 str1" cx="685" cy="2642" r="116"/>
   <rect class="fil1 str1" x="643" y="2600" width="84.5184" height="84.5184" rx="7" ry="7"/>
   <rect class="fil2" x="92" y="391" width="1161" height="2064"/>
   <path class="fil1 str2" d="M584 224l178 0c12,0 21,10 21,21l0 0c0,12 -9,21 -21,21l-178 0c-12,0 -22,-9 -22,-21l0 0c0,-11 10,-21 22,-21z"/>
   <path class="fil1 str2" d="M673 111c13,0 23,11 23,24 0,13 -10,23 -23,23 -13,0 -24,-10 -24,-23 0,-13 11,-24 24,-24z"/>
  </g>
 </g>
</svg>
