<?xml version="1.0" encoding="UTF-8"?>
<!DOCTYPE svg PUBLIC "-//W3C//DTD SVG 1.1//EN" "http://www.w3.org/Graphics/SVG/1.1/DTD/svg11.dtd">
<!-- Creator: CorelDRAW X7 -->
<svg xmlns="http://www.w3.org/2000/svg" xml:space="preserve" width="338px" height="600px" version="1.1" style="shape-rendering:geometricPrecision; text-rendering:geometricPrecision; image-rendering:optimizeQuality; fill-rule:evenodd; clip-rule:evenodd"
viewBox="0 0 7552 13405"
 xmlns:xlink="http://www.w3.org/1999/xlink">
 <defs>
  <style type="text/css">
   <![CDATA[
    .str0 {stroke:#CCCCCC;stroke-width:35.4001}
    .str1 {stroke:#CCCCCC;stroke-width:70.8002}
    .str2 {stroke:#CCCCCC;stroke-width:70.8002;stroke-linejoin:round}
    .fil8 {fill:none}
    .fil5 {fill:#4D4D4D}
    .fil6 {fill:gray}
    .fil4 {fill:#B3B3B3}
    .fil0 {fill:#F2F2F2}
    .fil2 {fill:white}
    .fil3 {fill:white}
    .fil1 {fill:#B3B3B3;fill-rule:nonzero}
    .fil7 {fill:white;fill-rule:nonzero}
   ]]>
  </style>
 </defs>
 <g id="Layer_x0020_1">
  <metadata id="CorelCorpID_0Corel-Layer"/>
  <g id="_2320514587792">
   <rect class="fil0" width="7552" height="13405"/>
   <polygon class="fil1" points="7552,1038 0,1038 0,0 7552,0 "/>
   <rect class="fil2" x="528" y="365" width="3005" height="308"/>
   <rect class="fil3" x="6508" y="307" width="656.806" height="70.8002"/>
   <rect class="fil3" x="6508" y="484" width="656.806" height="70.8002"/>
   <rect class="fil3" x="6508" y="661" width="656.806" height="70.8002"/>
   <g>
    <rect class="fil4" x="476" y="3593" width="5547" height="197"/>
    <rect class="fil4" x="476" y="4018" width="6321" height="197"/>
    <rect class="fil4" x="476" y="4443" width="6491" height="197"/>
    <rect class="fil4" x="476" y="4868" width="5616" height="197"/>
    <rect class="fil4" x="476" y="5491" width="6547" height="197"/>
    <rect class="fil4" x="476" y="5916" width="2366" height="197"/>
   </g>
   <rect class="fil5" x="476" y="2468" width="5009" height="278"/>
   <rect class="fil6" x="476" y="2013" width="1899" height="202"/>
   <g>
    <polygon class="fil7 str0" points="7079,7085 7079,7085 473,7085 473,12086 7079,12086 "/>
    <g>
     <path class="fil8 str1" d="M2875 8603l1799 0c133,0 242,109 242,242l0 1481c0,133 -109,242 -242,242l-1799 0c-133,0 -242,-109 -242,-242l0 -1481c0,-133 109,-242 242,-242z"/>
     <polyline class="fil8 str2" points="2645,10361 3270,9718 4123,10568 "/>
     <polyline class="fil8 str2" points="3503,9939 4143,9252 4919,10034 "/>
     <circle class="fil8 str1" cx="3534" cy="9037" r="255"/>
    </g>
   </g>
  </g>
 </g>
</svg>
